<mxfile host="app.diagrams.net" modified="2023-11-19T06:37:43.820Z" agent="Mozilla/5.0 (Windows NT 10.0; Win64; x64) AppleWebKit/537.36 (KHTML, like Gecko) Chrome/119.0.0.0 Safari/537.36" etag="uY0cVfU0Jc6uZR_uxjzX" version="22.1.6" type="device">
  <diagram name="第 1 页" id="5f9Lc6oD-3k6J3N6WtV2">
    <mxGraphModel dx="1220" dy="730" grid="1" gridSize="10" guides="1" tooltips="1" connect="1" arrows="1" fold="1" page="1" pageScale="1" pageWidth="827" pageHeight="1169" math="0" shadow="0">
      <root>
        <mxCell id="0" />
        <mxCell id="1" parent="0" />
        
        <!-- Microservice Nodes -->
        <mxCell id="ms1" value="Service A" style="ellipse;whiteSpace=wrap;html=1;aspect=fixed;fontSize=12;" vertex="1" parent="1">
          <mxGeometry x="50" y="150" width="70" height="70" as="geometry" />
        </mxCell>
        <mxCell id="ms2" value="Service B" style="ellipse;whiteSpace=wrap;html=1;aspect=fixed;fontSize=12;" vertex="1" parent="1">
          <mxGeometry x="140" y="80" width="70" height="70" as="geometry" />
        </mxCell>
        <mxCell id="ms3" value="Service C" style="ellipse;whiteSpace=wrap;html=1;aspect=fixed;fontSize=12;" vertex="1" parent="1">
          <mxGeometry x="140" y="220" width="70" height="70" as="geometry" />
        </mxCell>
        
        <!-- Microservice Connections -->
        <mxCell id="c1" style="edgeStyle=orthogonalEdgeStyle;rounded=0;orthogonalLoop=1;jettySize=auto;html=1;endArrow=classic;endFill=1;strokeWidth=1;" edge="1" parent="1" source="ms1" target="ms2">
          <mxGeometry relative="1" as="geometry" />
        </mxCell>
        <mxCell id="c2" style="edgeStyle=orthogonalEdgeStyle;rounded=0;orthogonalLoop=1;jettySize=auto;html=1;endArrow=classic;endFill=1;strokeWidth=1;" edge="1" parent="1" source="ms1" target="ms3">
          <mxGeometry relative="1" as="geometry" />
        </mxCell>
        <mxCell id="c3" style="edgeStyle=orthogonalEdgeStyle;rounded=0;orthogonalLoop=1;jettySize=auto;html=1;endArrow=classic;endFill=1;strokeWidth=1;" edge="1" parent="1" source="ms2" target="ms3">
          <mxGeometry relative="1" as="geometry" />
        </mxCell>
        
        <!-- GNN Predictor -->
        <mxCell id="gnn" value="GNN Predictor" style="rounded=1;whiteSpace=wrap;html=1;fillColor=#dae8fc;strokeColor=#6c8ebf;fontSize=14;" vertex="1" parent="1">
          <mxGeometry x="300" y="125" width="140" height="60" as="geometry" />
        </mxCell>
        
        <!-- Arrow from Microservices to GNN -->
        <mxCell id="a1" style="edgeStyle=orthogonalEdgeStyle;rounded=0;orthogonalLoop=1;jettySize=auto;html=1;endArrow=classic;endFill=1;strokeWidth=1;dashed=1;" edge="1" parent="1" source="ms3" target="gnn">
          <mxGeometry relative="1" as="geometry">
            <mxPoint x="320" y="150" as="targetPoint" />
          </mxGeometry>
        </mxCell>
        
        <!-- K8s Cluster -->
        <mxCell id="k8s" value="K8s Cluster" style="rounded=1;whiteSpace=wrap;html=1;fillColor=#f5f5f5;strokeColor=#666666;fontSize=14;" vertex="1" parent="1">
          <mxGeometry x="520" y="50" width="160" height="230" as="geometry" />
        </mxCell>
        
        <!-- Worker Nodes -->
        <mxCell id="node1" value="Worker Node" style="rounded=1;whiteSpace=wrap;html=1;fillColor=#ffffff;strokeColor=#666666;" vertex="1" parent="1">
          <mxGeometry x="550" y="80" width="100" height="45" as="geometry" />
        </mxCell>
        <mxCell id="node2" value="Worker Node" style="rounded=1;whiteSpace=wrap;html=1;fillColor=#ffffff;strokeColor=#666666;" vertex="1" parent="1">
          <mxGeometry x="550" y="135" width="100" height="45" as="geometry" />
        </mxCell>
        <mxCell id="node3" value="Worker Node" style="rounded=1;whiteSpace=wrap;html=1;fillColor=#ffffff;strokeColor=#666666;" vertex="1" parent="1">
          <mxGeometry x="550" y="190" width="100" height="45" as="geometry" />
        </mxCell>
        
        <!-- Pod -->
        <mxCell id="pod" value="Pod" style="rounded=1;whiteSpace=wrap;html=1;fillColor=#d5e8d4;strokeColor=#82b366;fontSize=12;" vertex="1" parent="1">
          <mxGeometry x="565" y="200" width="70" height="25" as="geometry" />
        </mxCell>
        
        <!-- Arrow from GNN to K8s -->
        <mxCell id="a2" style="edgeStyle=orthogonalEdgeStyle;rounded=0;orthogonalLoop=1;jettySize=auto;html=1;endArrow=classic;endFill=1;strokeWidth=1;dashed=1;" edge="1" parent="1" source="gnn" target="k8s">
          <mxGeometry relative="1" as="geometry" />
        </mxCell>
        
        <!-- Legend -->
        <mxCell id="text1" value="利用GNN预测微服务性能并指导调度决策" style="text;html=1;strokeColor=none;fillColor=none;align=center;fontSize=20;fontStyle=1;verticalAlign=middle;spacingTop=10;" vertex="1" parent="1">
          <mxGeometry x="260" y="20" width="300" height="30" as="geometry" />
        </mxCell>
        <mxCell id="text2" value="① 服务调用图输入" style="text;html=1;strokeColor=none;fillColor=none;align=left;verticalAlign=top;spacingLeft=4;" vertex="1" parent="1">
          <mxGeometry x="50" y="90" width="120" height="20" as="geometry" />
        </mxCell>
        <mxCell id="text3" value="② GNN性能预测" style="text;html=1;strokeColor=none;fillColor=none;align=left;verticalAlign=top;spacingLeft=4;" vertex="1" parent="1">
          <mxGeometry x="300" y="95" width="120" height="20" as="geometry" />
        </mxCell>
        <mxCell id="text4" value="③ 调度决策" style="text;html=1;strokeColor=none;fillColor=none;align=left;verticalAlign=top;spacingLeft=4;" vertex="1" parent="1">
          <mxGeometry x="480" y="130" width="120" height="20" as="geometry" />
        </mxCell>
        <mxCell id="text5" value="④ Pod部署到最佳节点" style="text;html=1;strokeColor=none;fillColor=none;align=left;verticalAlign=top;spacingLeft=4;" vertex="1" parent="1">
          <mxGeometry x="570" y="210" width="120" height="20" as="geometry" />
        </mxCell>
      </root>
    </mxGraphModel>
  </diagram>
</mxfile>